<svg xmlns="http://www.w3.org/2000/svg" version="1.1" xmlns:xlink="http://www.w3.org/1999/xlink" xmlns:svgjs="http://svgjs.dev/svgjs" width="41" height="37"><svg width="41" height="37" viewBox="0 0 41 37" fill="none" xmlns="http://www.w3.org/2000/svg">
<path d="M20.3066 36.9999C16.3099 36.9999 12.7852 36.2252 9.72952 34.677C6.67388 33.1275 4.28754 30.9811 2.57194 28.2351C0.8578 25.4891 0 22.333 0 18.7655C0 15.198 0.881181 11.9252 2.64354 9.22588C4.4059 6.52799 6.81417 4.42688 9.87127 2.92546C12.9269 1.42405 16.4282 0.672607 20.3768 0.672607C24.3253 0.672607 27.9683 1.43572 31.024 2.96048C34.0796 4.48671 36.4528 6.59803 38.145 9.29737C39.8372 11.9967 40.6834 15.1528 40.6834 18.767C40.6834 22.3812 39.8256 25.5606 38.11 28.3066C36.3929 31.0526 34.008 33.1888 30.9524 34.7135C27.8967 36.2397 24.3472 37.0014 20.3051 37.0014L20.3066 36.9999ZM20.4484 26.4389C22.3758 26.4389 23.9614 25.724 25.2079 24.2911C26.453 22.8598 27.0769 21.0169 27.0769 18.764C27.0769 16.5112 26.4661 14.6698 25.243 13.237C24.0198 11.8056 22.4694 11.0892 20.5886 11.0892C18.5676 11.0892 16.9324 11.8056 15.6874 13.237C14.4408 14.6698 13.8183 16.5112 13.8183 18.764C13.8183 21.0169 14.4408 22.8598 15.6874 24.2911C16.9324 25.724 18.5194 26.4389 20.4469 26.4389H20.4484Z" fill="#0A2437"></path>
</svg><style>@media (prefers-color-scheme: light) { :root { filter: none; } }
@media (prefers-color-scheme: dark) { :root { filter: none; } }
</style></svg>